<svg width="110" height="23" viewBox="0 0 110 23" fill="none" xmlns="http://www.w3.org/2000/svg">
<g clip-path="url(#clip0_1486_233)">
<path d="M109.805 17.0152V19.7373H107.522C105.085 19.6608 103.783 18.3449 103.783 15.8734V9.65633H102.189V7.26836H103.783V4.59494H107.153V7.24051H109.728V9.62152H107.153V15.5392C107.153 16.3399 107.313 16.9804 108.545 16.9804L109.805 17.0152Z" fill="white"/>
<path d="M88.7589 13.5272V13.3462C88.7224 12.5455 88.8443 11.7454 89.1177 10.9919C89.391 10.2384 89.8104 9.54621 90.3517 8.95507C90.8931 8.36393 91.5457 7.88543 92.2724 7.54701C92.999 7.20859 93.7852 7.01689 94.5861 6.98291C94.7462 6.98291 94.9133 6.98291 95.0734 6.98291C98.2551 6.98291 101.047 8.83481 101.047 13.2487V14.1886H92.2051C92.2956 16.2215 93.3956 17.3703 95.2475 17.3703C96.8418 17.3703 97.5867 16.674 97.8025 15.6576H100.984C100.594 18.3101 98.4778 19.7861 95.1291 19.7861C91.4532 19.7582 88.7589 17.4329 88.7589 13.5272ZM97.7329 12.0582C97.6146 10.2063 96.6816 9.31519 95.0595 9.31519C93.4373 9.31519 92.5044 10.3177 92.2747 12.0582H97.7329Z" fill="white"/>
<path d="M75.0019 13.5272V13.3462C74.9654 12.5466 75.0869 11.7476 75.3594 10.995C75.6318 10.2423 76.0499 9.55078 76.5898 8.95982C77.1297 8.36886 77.7808 7.89009 78.5058 7.55088C79.2308 7.21167 80.0155 7.01867 80.8152 6.98291C80.9753 6.98291 81.1424 6.98291 81.3025 6.98291C84.4842 6.98291 87.2829 8.83481 87.2829 13.2487V14.1886H78.4481C78.5386 16.2215 79.6386 17.3703 81.4905 17.3703C83.0848 17.3703 83.8297 16.674 84.0456 15.6576H87.2272C86.8304 18.3101 84.7139 19.7861 81.3652 19.7861C77.6962 19.7582 75.0019 17.4329 75.0019 13.5272ZM83.9759 12.0582C83.8576 10.2063 82.9247 9.31519 81.3025 9.31519C79.6804 9.31519 78.7753 10.3456 78.5177 12.0513L83.9759 12.0582Z" fill="white"/>
<path d="M55.6962 7.24051H59.2608L61.4399 15.4975L63.8278 7.24051H66.6127L68.7709 15.4975L71.0684 7.24051H74.3335L70.4627 19.5076H67.1209L65.0323 11.8076L62.7975 19.5076H59.4139L55.6962 7.24051Z" fill="white"/>
<path d="M44.369 15.6506H47.5506C47.6968 16.7576 48.2468 17.3911 49.7089 17.3911C51.0177 17.3911 51.6234 16.8968 51.6234 16.0544C51.6234 15.212 50.9272 14.857 49.1449 14.6063C45.8797 14.112 44.6196 13.1722 44.6196 10.7772C44.6196 8.22215 46.9589 6.95506 49.493 6.95506C52.2152 6.95506 54.269 7.94367 54.5614 10.7633H51.4215C51.4015 10.5453 51.3385 10.3335 51.2361 10.14C51.1337 9.94651 50.994 9.77523 50.825 9.63605C50.6561 9.49688 50.4612 9.39256 50.2517 9.32912C50.0422 9.26568 49.8222 9.24438 49.6044 9.26646H49.5C48.4 9.26646 47.7595 9.78165 47.7595 10.5335C47.7595 11.2854 48.3513 11.6127 50.1475 11.8703C53.1968 12.3297 54.9025 13.1025 54.9025 15.7272C54.9025 18.3519 52.974 19.7582 49.7437 19.7582C46.5133 19.7582 44.4595 18.3032 44.369 15.6506Z" fill="white"/>
<path d="M30.8487 7.2405H34.2184V9.18291C34.5982 8.46995 35.1747 7.88102 35.8793 7.4861C36.584 7.09117 37.3873 6.90686 38.1937 6.95506C40.5816 6.95506 42.3152 8.41012 42.3152 11.731V19.5354H38.9873V12.2183C38.9873 10.5544 38.3399 9.76076 36.8361 9.76076C36.5182 9.73308 36.1981 9.76846 35.8939 9.86485C35.5898 9.96125 35.3077 10.1168 35.0638 10.3225C34.8199 10.5282 34.6191 10.78 34.4728 11.0636C34.3265 11.3471 34.2377 11.6567 34.2114 11.9747C34.194 12.1227 34.194 12.2722 34.2114 12.4202V19.5076H30.8487V7.2405Z" fill="white"/>
<path d="M24.3462 4.15633C24.334 3.82037 24.4217 3.48833 24.5983 3.20227C24.7749 2.9162 25.0325 2.68897 25.3383 2.54934C25.6441 2.40971 25.9845 2.36396 26.3163 2.41789C26.6481 2.47181 26.9565 2.62298 27.2024 2.85226C27.4482 3.08155 27.6205 3.37863 27.6975 3.70589C27.7744 4.03316 27.7525 4.37589 27.6345 4.6907C27.5166 5.00551 27.3079 5.27824 27.0348 5.47436C26.7617 5.67048 26.4366 5.78116 26.1006 5.79241H26.038C25.8294 5.80561 25.6203 5.7775 25.4227 5.70971C25.225 5.64191 25.0427 5.53576 24.8862 5.39734C24.7297 5.25892 24.602 5.09095 24.5105 4.90308C24.4191 4.71521 24.3656 4.51112 24.3532 4.30254C24.3474 4.25403 24.3451 4.20517 24.3462 4.15633ZM24.3462 7.24051H27.7506V19.5076H24.3601L24.3462 7.24051Z" fill="white"/>
<path d="M11.5152 2.74304H22.2785V5.71583H15.3165V10.1506H20.8304V13.012H15.3095V19.5076H11.5152V2.74304Z" fill="white"/>
<path d="M5.01962 8.22911C5.01962 9.28038 5.01962 10.5614 3.57152 11.0835C5.05443 11.5918 5.01962 12.6709 5.01962 13.7987V17.976C5.01962 18.7696 5.33987 19.25 5.91076 19.3684C6.0362 19.4107 6.16836 19.4296 6.30063 19.4241H7.69304V22.2089H5.39557C2.94494 22.2089 1.5943 20.8165 1.5943 18.2335V13.2905C1.57692 13.0367 1.46503 12.7987 1.28071 12.6234C1.0964 12.4481 0.853055 12.3483 0.598734 12.3437H0V9.9H0.598734C0.85813 9.89658 1.10625 9.79342 1.29162 9.61194C1.47699 9.43046 1.58538 9.18458 1.5943 8.92532V3.91266C1.5943 1.37152 2.91709 0 5.39557 0H7.71393V2.74304H6.32152C6.18909 2.74342 6.05753 2.76456 5.93165 2.8057C5.36076 2.9519 5.04051 3.42532 5.04051 4.1981L5.01962 8.22911Z" fill="white"/>
</g>
<defs>
<clipPath id="clip0_1486_233">
<rect width="110" height="22.2785" fill="white"/>
</clipPath>
</defs>
</svg>
